<svg id="Layer_1" data-name="Layer 1" xmlns="http://www.w3.org/2000/svg" xmlns:xlink="http://www.w3.org/1999/xlink" viewBox="0 0 245.78 245.78"><defs><style>.cls-1{fill:none;}.cls-2{fill:#d2fafa;stroke:#042f41;}.cls-3{clip-path:url(#clip-path);}.cls-4{fill:#1b6296;}</style><clipPath id="clip-path" transform="translate(-191.08 -268.72)"><rect class="cls-1" x="240.43" y="336.16" width="148.19" height="111.68"/></clipPath></defs><g id="Group_24" data-name="Group 24"><g id="Group_25" data-name="Group 25"><path id="Path_516" data-name="Path 516" class="cls-2" d="M436.36,391.61A122.39,122.39,0,1,1,314,269.22,122.39,122.39,0,0,1,436.36,391.61h0" transform="translate(-191.08 -268.72)"/></g></g><g id="Group_32" data-name="Group 32"><g class="cls-3"><g id="Group_31" data-name="Group 31"><path id="Path_524" data-name="Path 524" class="cls-4" d="M240.43,433.15V369.47c3.8-10.63,9.52-14.68,20.78-14.68,4.43,0,8.87-.13,13.3,0a5.64,5.64,0,0,0,5.64-3.16c1.83-3.17,3.7-6.33,5.77-9.35a13.16,13.16,0,0,1,12-6.14c11,.26,22,.28,33,0a13.63,13.63,0,0,1,12.62,6.61c2,3,3.77,6.06,5.57,9.13a5.28,5.28,0,0,0,5.17,2.91c4.53-.15,9.08.19,13.59-.09a19.3,19.3,0,0,1,20.78,14.73v63.7c-3.48,9.77-9.53,14.66-18.45,14.67q-55.79,0-111.59,0a18.05,18.05,0,0,1-12.93-5.48,21.11,21.11,0,0,1-5.21-9.19m73.81,5h54.4a9.4,9.4,0,0,0,10.47-8.2,9,9,0,0,0,0-2.14q.08-26.48,0-53a9.38,9.38,0,0,0-10.24-10.31c-5.11-.07-10.24-.27-15.33,0a12.93,12.93,0,0,1-12.2-6.28c-2-2.95-3.82-6-5.58-9.13a5.76,5.76,0,0,0-5.61-3.26c-10.22.12-20.45.18-30.67,0a6.57,6.57,0,0,0-6.63,4A52.33,52.33,0,0,1,286.28,360a11.88,11.88,0,0,1-9.88,4.47c-5.11-.19-10.23-.06-15.34-.05-7.63,0-11.14,3.54-11.15,11.19q0,25.47,0,50.94c0,8.21,3.38,11.54,11.66,11.54h52.67" transform="translate(-191.08 -268.72)"/><path id="Path_525" data-name="Path 525" class="cls-4" d="M286.53,396.64a28,28,0,1,1,28,28h-.14a27.81,27.81,0,0,1-27.82-27.79v-.24M314.63,415a18.28,18.28,0,1,0-18.38-18.25A18.67,18.67,0,0,0,314.63,415" transform="translate(-191.08 -268.72)"/></g></g></g></svg>