<svg id="Layer_1" data-name="Layer 1" xmlns="http://www.w3.org/2000/svg" viewBox="0 0 248 248"><defs><style>.cls-1{fill:#d2fafa;}.cls-2{fill:#317c9d;}.cls-3{fill:#08dbdb;}</style></defs><g id="Path_515" data-name="Path 515"><path class="cls-1" d="M231.81,432a123.46,123.46,0,0,1-24.69-2.49,121.81,121.81,0,0,1-23-7.14,122.92,122.92,0,0,1-65.19-65.19,122.45,122.45,0,0,1,26.26-134.3,122.65,122.65,0,0,1,38.93-26.25,121.81,121.81,0,0,1,23-7.14,123.65,123.65,0,0,1,49.38,0,122,122,0,0,1,43.8,18.43A123.24,123.24,0,0,1,333.39,241a122.42,122.42,0,0,1-15,155.11,124.16,124.16,0,0,1-18.13,15A122,122,0,0,1,231.81,432Z" transform="translate(-107.81 -185.45)"/><path class="cls-2" d="M231.81,188.45a122,122,0,0,0-24.39,2.46,120.82,120.82,0,0,0-61.17,33,121.28,121.28,0,0,0-25.94,38.46,121.31,121.31,0,0,0,0,94.2,121.34,121.34,0,0,0,64.4,64.39A120.2,120.2,0,0,0,207.42,428a122.14,122.14,0,0,0,48.78,0,120.62,120.62,0,0,0,43.26-18.2,121.59,121.59,0,0,0,32.68-32.69,120.79,120.79,0,0,0,0-135.3,121.59,121.59,0,0,0-32.68-32.69,120.57,120.57,0,0,0-67.65-20.66m0-3a124,124,0,1,1-124,124A124,124,0,0,1,231.81,185.45Z" transform="translate(-107.81 -185.45)"/></g><g id="Group_27" data-name="Group 27"><g id="Group_28" data-name="Group 28"><path id="Path_519" data-name="Path 519" class="cls-3" d="M169.19,369.38c-3.68-1.82-4.74-3.78-4.28-8a71,71,0,0,1,55.58-61.23,11,11,0,0,1,7.4.64c6.7,3,13.49,2.64,20.05-.71a4.65,4.65,0,0,1,3.23-.47,70.86,70.86,0,0,1,32.55,15,69.78,69.78,0,0,1,25.13,43.94c.17,1,.3,2.05.45,3.07.53,3.67-.57,5.68-4.24,7.75Z" transform="translate(-107.81 -185.45)"/><path id="Path_520" data-name="Path 520" class="cls-3" d="M241.09,224.45a31.71,31.71,0,0,1,12,4.41c10.45,7,15.5,16.73,14.12,29.28a52.41,52.41,0,0,1-15.64,32.47,21.85,21.85,0,0,1-10.72,6c-5.56,1.23-10.55-.3-15.09-3.53-5.27-3.74-9-8.8-12.09-14.39a53.13,53.13,0,0,1-6.78-21.41,30.51,30.51,0,0,1,25.47-32.66,8,8,0,0,0,.81-.21Z" transform="translate(-107.81 -185.45)"/></g></g></svg>