<svg id="Layer_1" data-name="Layer 1" xmlns="http://www.w3.org/2000/svg" viewBox="0 0 138.13 164.69"><defs><style>.cls-1{fill:#18698d;}</style></defs><path id="notification_important-24px-2" data-name="notification important-24px-2" class="cls-1" d="M273.64,308.72a15.27,15.27,0,0,0,30.54,0Zm15.27-115.19a38.39,38.39,0,0,1,38.38,38.37v53.72H250.55V231.9A38.38,38.38,0,0,1,288.91,193.53Zm0-34.53a11.5,11.5,0,0,0-11.51,11.48v9a53.66,53.66,0,0,0-42.2,52.41v46l-15.35,15.35V301H358v-7.67l-15.35-15.35v-46a53.66,53.66,0,0,0-42.2-52.41v-9A11.49,11.49,0,0,0,289,159Zm-7.67,49.88h15.35v30.7H281.24Zm0,46.05h15.35v15.34H281.24Z" transform="translate(-219.85 -159)"/></svg>